<?xml version="1.0" encoding="UTF-8" standalone="no"?>
<!-- Created with Inkscape (http://www.inkscape.org/) -->

<svg
   xmlns:dc="http://purl.org/dc/elements/1.1/"
   xmlns:cc="http://creativecommons.org/ns#"
   xmlns:rdf="http://www.w3.org/1999/02/22-rdf-syntax-ns#"
   xmlns:svg="http://www.w3.org/2000/svg"
   xmlns="http://www.w3.org/2000/svg"
   xmlns:sodipodi="http://sodipodi.sourceforge.net/DTD/sodipodi-0.dtd"
   xmlns:inkscape="http://www.inkscape.org/namespaces/inkscape"
   width="500"
   height="500"
   id="svg2"
   version="1.1"
   inkscape:version="0.48.2 r9819"
   sodipodi:docname="logo.svg"
   inkscape:export-filename="/home/atila/UbuntuProjects/gsql-dinky/data/media/icon.png"
   inkscape:export-xdpi="2.8800001"
   inkscape:export-ydpi="2.8800001">
  <defs
     id="defs4" />
  <sodipodi:namedview
     id="base"
     pagecolor="#ffffff"
     bordercolor="#666666"
     borderopacity="1.0"
     inkscape:pageopacity="0.0"
     inkscape:pageshadow="2"
     inkscape:zoom="1.478"
     inkscape:cx="250"
     inkscape:cy="250"
     inkscape:document-units="px"
     inkscape:current-layer="layer6"
     showgrid="false"
     inkscape:showpageshadow="false"
     inkscape:window-width="1280"
     inkscape:window-height="946"
     inkscape:window-x="0"
     inkscape:window-y="25"
     inkscape:window-maximized="1" />
  <metadata
     id="metadata7">
    <rdf:RDF>
      <cc:Work
         rdf:about="">
        <dc:format>image/svg+xml</dc:format>
        <dc:type
           rdf:resource="http://purl.org/dc/dcmitype/StillImage" />
        <dc:title></dc:title>
      </cc:Work>
    </rdf:RDF>
  </metadata>
  <g
     inkscape:label="bg"
     inkscape:groupmode="layer"
     id="layer1"
     transform="translate(0,-552.36218)"
     sodipodi:insensitive="true" />
  <g
     inkscape:groupmode="layer"
     id="layer6"
     inkscape:label="right ear">
    <path
       style="fill:#000000;stroke:#000000;stroke-width:3.91476703;stroke-miterlimit:4;stroke-opacity:1;stroke-dasharray:none"
       d="m 40.700415,360.67843 c 27.748329,-15.6437 50.272085,-40.67602 61.441525,-70.64828 16.59385,-36.92301 29.30255,-75.81948 34.27276,-116.11001 3.48577,-22.75551 6.42263,-45.67808 6.5707,-68.73328 -1.14193,-8.60448 -6.88302,-11.980863 -15.69431,-6.761788 C 104.41568,117.25839 86.445929,141.8566 75.742578,169.50569 60.286129,203.64616 45.264579,238.0815 34.546813,274.06088 c -3.349204,12.06454 -9.547601,23.58811 -8.717046,36.41092 -0.463167,16.72907 -0.614185,34.66792 7.09702,49.87157 2.049234,1.92136 5.652982,2.4431 7.773628,0.33506 z"
       id="path3842"
       inkscape:connector-curvature="0"
       sodipodi:nodetypes="cccccccccc" />
  </g>
  <g
     inkscape:groupmode="layer"
     id="layer2"
     inkscape:label="head"
     style="display:inline"
     sodipodi:insensitive="true">
    <path
       style="fill:#ffe6d5;fill-opacity:0.94117647;stroke:#000000;stroke-width:10.55842876;stroke-miterlimit:4;stroke-opacity:1;stroke-dasharray:none"
       d="m 256.25063,69.989913 c 154.51045,1.327471 149.67247,155.660107 148.65499,331.193417 -100.25648,34.96003 -200.51296,41.76118 -300.76944,0 C 104.00327,223.58999 95.622322,70.551068 256.25063,69.989913 z"
       id="rect3005"
       inkscape:connector-curvature="0"
       sodipodi:nodetypes="cccc" />
  </g>
  <g
     inkscape:groupmode="layer"
     id="layer3"
     inkscape:label="eyes"
     sodipodi:insensitive="true">
    <path
       sodipodi:type="arc"
       style="fill:#000000"
       id="path3009"
       sodipodi:cx="75.439781"
       sodipodi:cy="168.13261"
       sodipodi:rx="50.405952"
       sodipodi:ry="50.405952"
       d="m 125.84573,168.13261 a 50.405952,50.405952 0 1 1 -100.811901,0 50.405952,50.405952 0 1 1 100.811901,0 z"
       transform="matrix(0.57028448,0,0,0.78121164,167.46225,40.822295)" />
    <path
       d="m 125.84573,168.13261 a 50.405952,50.405952 0 1 1 -100.811901,0 50.405952,50.405952 0 1 1 100.811901,0 z"
       sodipodi:ry="50.405952"
       sodipodi:rx="50.405952"
       sodipodi:cy="168.13261"
       sodipodi:cx="75.439781"
       id="path3011"
       style="fill:#ffffff"
       sodipodi:type="arc"
       transform="matrix(0.21050767,0,0,0.2883667,183.79998,107.82878)" />
    <path
       transform="matrix(0.57028448,0,0,0.78121164,249.86405,40.822295)"
       d="m 125.84573,168.13261 a 50.405952,50.405952 0 1 1 -100.811901,0 50.405952,50.405952 0 1 1 100.811901,0 z"
       sodipodi:ry="50.405952"
       sodipodi:rx="50.405952"
       sodipodi:cy="168.13261"
       sodipodi:cx="75.439781"
       id="path3021"
       style="fill:#000000"
       sodipodi:type="arc" />
    <path
       transform="matrix(0.21050767,0,0,0.2883667,266.20176,107.82878)"
       sodipodi:type="arc"
       style="fill:#ffffff"
       id="path3023"
       sodipodi:cx="75.439781"
       sodipodi:cy="168.13261"
       sodipodi:rx="50.405952"
       sodipodi:ry="50.405952"
       d="m 125.84573,168.13261 a 50.405952,50.405952 0 1 1 -100.811901,0 50.405952,50.405952 0 1 1 100.811901,0 z" />
  </g>
  <g
     inkscape:groupmode="layer"
     id="layer4"
     inkscape:label="nose"
     sodipodi:insensitive="true">
    <path
       style="fill:#deaa87;fill-opacity:0.94117647;stroke:#000000;stroke-width:10.55842876;stroke-miterlimit:4;stroke-opacity:1;stroke-dasharray:none"
       inkscape:transform-center-x="19.830213"
       inkscape:transform-center-y="-0.033991956"
       d="m 260.812,374.11585 c 0,0 -51.56176,-6.28212 -72.49998,-20.88789 -19.47569,-13.58558 -43.63699,-58.05178 -43.63699,-58.05178 0,0 31.16368,-40.16432 51.41176,-54.05824 20.30144,-13.93056 67.66882,-27.60355 67.66882,-27.60355 0,0 20.11986,51.25858 19.82779,78.28163 -0.30912,28.60186 -22.7714,82.31983 -22.7714,82.31983 z"
       inkscape:connector-curvature="0"
       sodipodi:nodetypes="cacacac"
       id="path17" />
    <path
       transform="matrix(0.53299751,0,0,0.82159297,120.21022,163.03244)"
       d="m 125.84573,168.13261 a 50.405952,50.405952 0 1 1 -100.811901,0 50.405952,50.405952 0 1 1 100.811901,0 z"
       sodipodi:ry="50.405952"
       sodipodi:rx="50.405952"
       sodipodi:cy="168.13261"
       sodipodi:cx="75.439781"
       id="path3021-3"
       style="fill:#000000"
       sodipodi:type="arc" />
    <path
       transform="matrix(0.19674404,0,0,0.32263039,135.47971,231.82683)"
       sodipodi:type="arc"
       style="fill:#ffffff"
       id="path3023-0"
       sodipodi:cx="75.439781"
       sodipodi:cy="168.13261"
       sodipodi:rx="50.405952"
       sodipodi:ry="50.405952"
       d="m 125.84573,168.13261 a 50.405952,50.405952 0 1 1 -100.811901,0 50.405952,50.405952 0 1 1 100.811901,0 z" />
  </g>
  <g
     inkscape:groupmode="layer"
     id="layer5"
     inkscape:label="left ear">
    <path
       style="fill:#000000;stroke:#000000;stroke-width:3.83027887;stroke-miterlimit:4;stroke-opacity:1;stroke-dasharray:none"
       d="m 455.94494,359.29773 c -25.45145,-17.28148 -45.71229,-43.37621 -54.49893,-73.97948 -13.18249,-36.88416 -22.77371,-75.44335 -24.719,-114.90504 -1.76204,-22.41697 -3.06525,-44.9664 -1.56582,-67.44423 -0.82097,-11.371491 5.59937,-14.388772 14.25598,-8.784428 21.36935,20.052748 37.57499,45.964608 46.28345,74.612178 12.30238,34.3519 24.46368,68.86863 32.20068,104.72666 2.40575,12.56409 7.90117,24.75183 6.15502,37.78712 -0.7728,16.43035 -1.95825,34.11741 -10.55181,48.28255 -2.15959,1.73071 -5.62731,1.93131 -7.55957,-0.29533 z"
       id="path3837"
       inkscape:connector-curvature="0"
       sodipodi:nodetypes="cccccccccc" />
  </g>
  <g
     inkscape:groupmode="layer"
     id="layer7"
     inkscape:label="details"
     sodipodi:insensitive="true">
    <path
       style="fill:#000000;fill-opacity:0.94117647;stroke:none"
       d="m 327.07673,390.32363 c -1.70096,-1.4631 -1.8799,-2.02633 -1.79649,-5.6545 0.0535,-2.3269 0.59019,-4.99946 1.27017,-6.32498 1.72636,-3.36526 9.16669,-12.09497 13.29919,-15.60388 5.00417,-4.24905 6.41323,-5.07381 11.79626,-6.9047 8.49817,-2.89041 10.7597,-4.64242 9.95663,-7.71339 -0.47758,-1.82627 -3.484,-2.85831 -8.32651,-2.85831 -2.23682,0 -4.3747,-0.39883 -5.14087,-0.95907 -1.27746,-0.93411 -1.25822,-1.03505 0.73933,-3.87721 2.31993,-3.30086 4.3146,-4.2484 14.86034,-7.05922 8.04236,-2.14358 11.57351,-4.01862 14.73448,-7.82401 l 2.34392,-2.82177 4.6543,1.83795 c 4.91403,1.94051 16.51381,8.60882 17.91748,10.30013 1.00848,1.21514 2.58018,11.86101 2.61288,17.69828 0.0294,5.241 -0.95744,7.68458 -4.78071,11.83829 -2.30461,2.50379 -4.12142,3.66913 -8.05069,5.16388 l -5.07442,1.93039 -0.3383,-3.06543 c -0.65883,-5.96989 -3.72184,-5.35359 -14.58439,2.93452 -3.27636,2.49986 -7.87963,5.41695 -10.22948,6.48242 -2.34986,1.06548 -6.32919,3.19783 -8.84296,4.73856 -2.51378,1.54073 -7.58817,4.2786 -11.27642,6.08416 -8.08162,3.95631 -12.5274,4.42447 -15.74374,1.65789 l 0,0 z"
       id="path3772"
       inkscape:connector-curvature="0" />
    <path
       inkscape:connector-curvature="0"
       id="path3774"
       d="m 149.11816,362.12369 c 1.0595,-0.91134 1.17096,-1.26217 1.119,-3.52209 -0.0333,-1.44938 -0.36762,-3.11407 -0.79116,-3.93971 -1.07532,-2.09616 -5.70977,-7.53374 -8.28383,-9.71938 -3.117,-2.64665 -3.99468,-3.16038 -7.34767,-4.30081 -5.29336,-1.80038 -6.70202,-2.89168 -6.2018,-4.80453 0.29747,-1.13755 2.17012,-1.78039 5.18643,-1.78039 1.39327,0 2.72492,-0.24842 3.20215,-0.59738 0.79571,-0.58184 0.78372,-0.64472 -0.46051,-2.41505 -1.44505,-2.05604 -2.68749,-2.64625 -9.25624,-4.39706 -5.00944,-1.33519 -7.20893,-2.50312 -9.17784,-4.87343 l -1.45998,-1.75763 -2.89908,1.14483 c -3.06086,1.2087 -10.28615,5.36227 -11.16047,6.41576 -0.62817,0.75689 -1.60715,7.38801 -1.62752,11.02393 -0.0183,3.26453 0.59637,4.78659 2.97782,7.37386 1.4355,1.55957 2.56716,2.28543 5.01463,3.21649 l 3.16076,1.2024 0.21072,-1.9094 c 0.41037,-3.71853 2.31827,-3.33465 9.08435,1.82786 2.04079,1.55712 4.90808,3.37412 6.37176,4.03778 1.46368,0.66367 3.94234,1.99187 5.50812,2.95156 1.56578,0.9597 4.72653,2.66507 7.02387,3.78972 5.0339,2.46431 7.80309,2.75592 9.80649,1.03267 l 0,0 z"
       style="fill:#000000;fill-opacity:0.94117647;stroke:none" />
    <path
       style="fill:#000000;fill-opacity:0.94117647;stroke:none"
       d="m 148.44157,412.19135 c 1.0595,-0.91134 1.17096,-1.26217 1.119,-3.52209 -0.0333,-1.44938 -0.36762,-3.11407 -0.79116,-3.93971 -1.07532,-2.09616 -5.70977,-7.53374 -8.28383,-9.71938 -3.117,-2.64665 -3.99468,-3.16038 -7.34767,-4.30081 -5.29336,-1.80038 -6.70202,-2.89168 -6.2018,-4.80453 0.29747,-1.13755 2.17012,-1.78039 5.18643,-1.78039 1.39327,0 2.72492,-0.24842 3.20215,-0.59738 0.79571,-0.58184 0.78372,-0.64472 -0.46051,-2.41505 -1.44505,-2.05604 -2.68749,-2.64625 -9.25624,-4.39706 -5.00944,-1.33519 -7.20893,-2.50312 -9.17784,-4.87343 l -1.45998,-1.75763 -2.89908,1.14483 c -3.06086,1.2087 -10.28615,5.36227 -11.16047,6.41576 -0.62817,0.75689 -1.60715,7.38801 -1.62752,11.02393 -0.0183,3.26453 0.59637,4.78659 2.97782,7.37386 1.4355,1.55957 2.56716,2.28543 5.01463,3.21649 l 3.16076,1.2024 0.21072,-1.9094 c 0.41037,-3.71853 2.31827,-3.33465 9.08435,1.82786 2.04079,1.55712 4.90808,3.37412 6.37176,4.03778 1.46368,0.66367 3.94234,1.99187 5.50812,2.95156 1.56578,0.9597 4.72653,2.66507 7.02387,3.78972 5.0339,2.46431 7.80309,2.75592 9.80649,1.03267 l 0,0 z"
       id="path3776"
       inkscape:connector-curvature="0" />
    <path
       inkscape:connector-curvature="0"
       id="path3778"
       d="m 215.53241,113.43544 c -1.20316,-1.03491 -1.32973,-1.43331 -1.27073,-3.99966 0.0378,-1.64592 0.41747,-3.53633 0.89844,-4.47393 1.22113,-2.38038 6.48399,-8.555273 9.40708,-11.037272 3.53966,-3.005531 4.53634,-3.588922 8.34399,-4.883987 6.01111,-2.044508 7.61078,-3.283778 7.04274,-5.456003 -0.33782,-1.291798 -2.46438,-2.021803 -5.88969,-2.021803 -1.5822,0 -3.09441,-0.282109 -3.63635,-0.67839 -0.90361,-0.660735 -0.89,-0.732134 0.52295,-2.742513 1.64099,-2.334836 3.0519,-3.005071 10.51134,-4.993281 5.6887,-1.516244 8.18643,-2.842538 10.42232,-5.53425 l 1.65795,-1.995956 3.29218,1.300059 c 3.4759,1.372604 11.68091,6.089378 12.67379,7.285713 0.71334,0.859519 1.82507,8.389788 1.8482,12.518734 0.0208,3.707178 -0.67724,5.435628 -3.3816,8.373721 -1.63015,1.771035 -2.91525,2.595329 -5.69459,3.652628 l -3.58935,1.36545 -0.23929,-2.168311 c -0.46602,-4.222753 -2.63262,-3.786818 -10.31615,2.075711 -2.31751,1.76825 -5.5736,3.83163 -7.23574,4.58528 -1.66216,0.75366 -4.4769,2.26196 -6.255,3.35179 -1.7781,1.08982 -5.36743,3.02643 -7.97628,4.30358 -5.71647,2.79846 -8.86116,3.12961 -11.13621,1.17269 l 0,0 z"
       style="fill:#000000;fill-opacity:0.94117647;stroke:none" />
  </g>
</svg>
